<svg width="41" height="40" viewBox="0 0 41 40" fill="none" xmlns="http://www.w3.org/2000/svg">
<circle cx="21" cy="20" r="20" fill="#21313C"/>
<path d="M16.9596 25.3912H14.6501C14.2042 25.3866 13.7795 25.1996 13.4697 24.8724C13.1598 24.5451 12.9904 24.105 13.0004 23.6489V13.7059C13.0004 12.7708 13.7361 12.0103 14.6501 12H22.2654C23.1861 12 23.9329 12.764 23.9329 13.7059V15.5303H17.691C17.4859 15.5303 17.2897 15.6147 17.1459 15.7629C17.001 15.9123 16.9218 16.1141 16.9241 16.3239L16.9596 25.3912ZM14.6501 12.9121C14.445 12.9121 14.2488 12.9965 14.105 13.1447C13.9601 13.2941 13.881 13.4959 13.8832 13.7057V23.6487C13.881 23.8585 13.9601 24.0604 14.105 24.2098C14.2488 24.358 14.445 24.4424 14.6501 24.4424H16.059V16.3509C16.059 15.4125 16.8002 14.6497 17.7176 14.6451H23.0678V13.7329C23.07 13.523 22.9909 13.3212 22.846 13.1718C22.7022 13.0236 22.506 12.9392 22.3009 12.9392L14.6501 12.9121Z" fill="white"/>
<path d="M25.3502 27.9998H17.726C16.8086 27.9952 16.0674 27.2324 16.0674 26.2939V16.3509C16.0674 15.4124 16.8086 14.6496 17.726 14.645H25.3502C26.2642 14.6553 26.9998 15.4158 26.9998 16.3509V26.2939C26.9998 27.2289 26.2642 27.9895 25.3502 27.9998ZM17.726 15.5206C17.5209 15.5206 17.3247 15.605 17.1809 15.7532C17.036 15.9026 16.9569 16.1044 16.9591 16.3143V26.2941C16.9569 26.5039 17.036 26.7057 17.1809 26.8551C17.3247 27.0033 17.5209 27.0877 17.726 27.0877H25.3502C25.5564 27.09 25.7559 27.0079 25.9019 26.8585C26.0479 26.7091 26.1282 26.505 26.1259 26.2941V16.3511C26.1282 16.1401 26.0479 15.936 25.9019 15.7866C25.7559 15.6372 25.5564 15.5551 25.3502 15.5574L17.726 15.5206Z" fill="white"/>
</svg>
